<?xml version="1.0"?>
<svg width="410" height="260" xmlns="http://www.w3.org/2000/svg" xmlns:svg="http://www.w3.org/2000/svg" xmlns:xlink="http://www.w3.org/1999/xlink" version="1.1">
 <metadata id="metadata180">image/svg+xml</metadata>
 <defs id="defs174">
  <g id="shape0" transform="translate(105.5,105.5)">
   <path d="m89,0l15,0" fill="none" id="path124" stroke="#ffffff" stroke-linecap="round" stroke-linejoin="round" stroke-width="3"/>
   <path d="m0,89l0,15" fill="none" id="path126" stroke="#ffffff" stroke-linecap="round" stroke-linejoin="round" stroke-width="3"/>
   <path d="m-89,0l-15,0" fill="none" id="path128" stroke="#ffffff" stroke-linecap="round" stroke-linejoin="round" stroke-width="3"/>
   <path d="m0,-89l0,-15" fill="none" id="path130" stroke="#ffffff" stroke-linecap="round" stroke-linejoin="round" stroke-width="3"/>
  </g>
  <g id="shape1" transform="translate(94.25,94.25)">
   <path d="m-62.95,-62.95l-4.95,-4.95" fill="none" id="path133" stroke="#ffffff" stroke-linecap="round" stroke-linejoin="round" stroke-width="3"/>
   <path d="m-44.5,-77.1l-3.5,-6.05" fill="none" id="path135" stroke="#ffffff" stroke-linecap="round" stroke-linejoin="round" stroke-width="3"/>
   <path d="m-23.05,-85.95l-1.8,-6.8" fill="none" id="path137" stroke="#ffffff" stroke-linecap="round" stroke-linejoin="round" stroke-width="3"/>
   <path d="m23.05,-85.95l1.8,-6.8" fill="none" id="path139" stroke="#ffffff" stroke-linecap="round" stroke-linejoin="round" stroke-width="3"/>
   <path d="m44.5,-77.1l3.5,-6.05" fill="none" id="path141" stroke="#ffffff" stroke-linecap="round" stroke-linejoin="round" stroke-width="3"/>
   <path d="m62.95,-62.95l4.95,-4.95" fill="none" id="path143" stroke="#ffffff" stroke-linecap="round" stroke-linejoin="round" stroke-width="3"/>
   <path d="m77.1,-44.5l6.05,-3.5" fill="none" id="path145" stroke="#ffffff" stroke-linecap="round" stroke-linejoin="round" stroke-width="3"/>
   <path d="m85.95,-23.05l6.8,-1.8" fill="none" id="path147" stroke="#ffffff" stroke-linecap="round" stroke-linejoin="round" stroke-width="3"/>
   <path d="m85.95,23.05l6.8,1.8" fill="none" id="path149" stroke="#ffffff" stroke-linecap="round" stroke-linejoin="round" stroke-width="3"/>
   <path d="m77.1,44.5l6.05,3.5" fill="none" id="path151" stroke="#ffffff" stroke-linecap="round" stroke-linejoin="round" stroke-width="3"/>
   <path d="m62.95,62.95l4.95,4.95" fill="none" id="path153" stroke="#ffffff" stroke-linecap="round" stroke-linejoin="round" stroke-width="3"/>
   <path d="m44.5,77.1l3.5,6.05" fill="none" id="path155" stroke="#ffffff" stroke-linecap="round" stroke-linejoin="round" stroke-width="3"/>
   <path d="m23.05,85.95l1.8,6.8" fill="none" id="path157" stroke="#ffffff" stroke-linecap="round" stroke-linejoin="round" stroke-width="3"/>
   <path d="m-23.05,85.95l-1.8,6.8" fill="none" id="path159" stroke="#ffffff" stroke-linecap="round" stroke-linejoin="round" stroke-width="3"/>
   <path d="m-44.5,77.1l-3.5,6.05" fill="none" id="path161" stroke="#ffffff" stroke-linecap="round" stroke-linejoin="round" stroke-width="3"/>
   <path d="m-62.95,62.95l-4.95,4.95" fill="none" id="path163" stroke="#ffffff" stroke-linecap="round" stroke-linejoin="round" stroke-width="3"/>
   <path d="m-77.1,44.5l-6.05,3.5" fill="none" id="path165" stroke="#ffffff" stroke-linecap="round" stroke-linejoin="round" stroke-width="3"/>
   <path d="m-85.95,23.05l-6.8,1.8" fill="none" id="path167" stroke="#ffffff" stroke-linecap="round" stroke-linejoin="round" stroke-width="3"/>
   <path d="m-85.95,-23.05l-6.8,-1.8" fill="none" id="path169" stroke="#ffffff" stroke-linecap="round" stroke-linejoin="round" stroke-width="3"/>
   <path d="m-77.1,-44.5l-6.05,-3.5" fill="none" id="path171" stroke="#ffffff" stroke-linecap="round" stroke-linejoin="round" stroke-width="3"/>
  </g>
 </defs>Ssunrisenoo
 <g class="layer">
  <title>Layer 1</title>
  <g id="g122">
   <use height="211" id="use114" transform="translate(-105.5 -105.5)" width="211" x="205" xlink:href="#shape0" y="130"/>
   <use height="23.45" id="sunriseField" transform="translate(-83 -132.15)" width="166" x="205" xlink:href="#text0" y="130"/>
   <use height="23.45" id="sunsetField" transform="translate(-85.45 110.15)" width="170.95" x="205" xlink:href="#text1" y="130"/>
   <use height="23.45" id="noonField" transform="translate(-271.8 -11.9)" width="160.8" x="205" xlink:href="#text2" y="130"/>
   <use height="23.45" id="midnightField" transform="translate(111.55 -11.95)" width="176.45" x="205" xlink:href="#text3" y="130"/>
   <use height="188.5" id="use120" transform="translate(-94.25 -94.25)" width="188.5" x="205" xlink:href="#shape1" y="130"/>
  </g>
  <rect height="34.24" id="rect282" width="61.16" x="-0.38" y="116.49"/>
  <g fill="#000000" font-family="&#x27;Liberation Sans&#x27;" font-size="32px" font-style="normal" font-weight="bold" id="flowRoot286">
   <path d="m52.7,134.93l0,-5.53q0,-2.6 -1.76,-2.6q-0.93,0 -1.5,0.8q-0.57,0.8 -0.57,2.05l0,5.28l-2.56,0l0,-7.65q0,-0.8 -0.03,-1.3q-0.02,-0.51 -0.04,-0.91l2.44,0q0.03,0.17 0.07,0.93q0.05,0.75 0.05,1.03l0.03,0q0.52,-1.13 1.31,-1.64q0.78,-0.51 1.87,-0.51q1.56,0 2.4,0.97q0.84,0.96 0.84,2.82l0,6.26l-2.55,0z" fill="#ffffff" id="path318"/>
   <path d="m67.09,129.99q0,2.4 -1.33,3.77q-1.33,1.36 -3.68,1.36q-2.31,0 -3.62,-1.37q-1.31,-1.37 -1.31,-3.76q0,-2.38 1.31,-3.73q1.31,-1.37 3.67,-1.37q2.42,0 3.69,1.32q1.27,1.31 1.27,3.78zm-2.68,0q0,-1.76 -0.57,-2.55q-0.58,-0.79 -1.67,-0.79q-2.33,0 -2.33,3.34q0,1.65 0.56,2.52q0.58,0.86 1.65,0.86q2.36,0 2.36,-3.38z" fill="#ffffff" id="path320"/>
   <path d="m78.5,129.99q0,2.4 -1.33,3.77q-1.33,1.36 -3.68,1.36q-2.31,0 -3.62,-1.37q-1.31,-1.37 -1.31,-3.76q0,-2.38 1.31,-3.73q1.31,-1.37 3.67,-1.37q2.42,0 3.69,1.32q1.27,1.31 1.27,3.78zm-2.68,0q0,-1.76 -0.57,-2.55q-0.58,-0.79 -1.67,-0.79q-2.33,0 -2.33,3.34q0,1.65 0.56,2.52q0.58,0.86 1.65,0.86q2.36,0 2.36,-3.38z" fill="#ffffff" id="path322"/>
   <path d="m86.93,134.93l0,-5.53q0,-2.6 -1.76,-2.6q-0.92,0 -1.5,0.8q-0.56,0.8 -0.56,2.05l0,5.28l-2.57,0l0,-7.65q0,-0.8 -0.02,-1.3q-0.02,-0.51 -0.05,-0.91l2.44,0q0.03,0.17 0.08,0.93q0.04,0.75 0.04,1.03l0.04,0q0.52,-1.13 1.3,-1.64q0.79,-0.51 1.87,-0.51q1.57,0 2.41,0.97q0.84,0.96 0.84,2.82l0,6.26l-2.56,0z" fill="#ffffff" id="path324"/>
  </g>
  <g fill="#000000" font-family="&#x27;Liberation Sans&#x27;" font-size="32px" font-style="normal" font-weight="bold" id="flowRoot294">
   <path d="m184.3,248.25q0,1.43 -1.18,2.25q-1.16,0.81 -3.23,0.81q-2.03,0 -3.12,-0.64q-1.07,-0.64 -1.43,-2l2.25,-0.34q0.19,0.7 0.66,0.99q0.47,0.3 1.64,0.3q1.07,0 1.57,-0.28q0.49,-0.27 0.49,-0.85q0,-0.48 -0.4,-0.75q-0.4,-0.28 -1.34,-0.47q-2.17,-0.43 -2.93,-0.8q-0.76,-0.37 -1.16,-0.95q-0.39,-0.6 -0.39,-1.45q0,-1.42 1.09,-2.2q1.09,-0.79 3.09,-0.79q1.76,0 2.82,0.68q1.08,0.68 1.34,1.98l-2.27,0.23q-0.11,-0.6 -0.54,-0.89q-0.42,-0.3 -1.35,-0.3q-0.92,0 -1.37,0.24q-0.46,0.23 -0.46,0.77q0,0.43 0.35,0.69q0.35,0.24 1.18,0.41q1.16,0.23 2.06,0.49q0.9,0.24 1.44,0.59q0.54,0.35 0.86,0.89q0.33,0.54 0.33,1.39z" fill="#ffffff" id="path327"/>
   <path d="m188.79,241.27l0,5.53q0,2.6 1.75,2.6q0.93,0 1.5,-0.8q0.57,-0.8 0.57,-2.05l0,-5.28l2.56,0l0,7.65q0,1.26 0.08,2.21l-2.45,0q-0.11,-1.31 -0.11,-1.96l-0.04,0q-0.51,1.12 -1.31,1.63q-0.78,0.51 -1.86,0.51q-1.57,0 -2.41,-0.96q-0.84,-0.96 -0.84,-2.82l0,-6.26l2.56,0z" fill="#ffffff" id="path329"/>
   <path d="m204.18,251.13l0,-5.53q0,-2.6 -1.76,-2.6q-0.93,0 -1.5,0.8q-0.57,0.79 -0.57,2.04l0,5.29l-2.56,0l0,-7.66q0,-0.79 -0.03,-1.29q-0.02,-0.51 -0.04,-0.91l2.44,0q0.03,0.17 0.07,0.93q0.05,0.74 0.05,1.03l0.03,0q0.52,-1.13 1.31,-1.64q0.78,-0.51 1.87,-0.51q1.56,0 2.4,0.96q0.84,0.97 0.84,2.83l0,6.26l-2.55,0z" fill="#ffffff" id="path331"/>
   <path d="m217.51,248.25q0,1.43 -1.17,2.25q-1.17,0.81 -3.24,0.81q-2.03,0 -3.12,-0.64q-1.07,-0.64 -1.43,-2l2.25,-0.34q0.2,0.7 0.66,0.99q0.47,0.3 1.64,0.3q1.08,0 1.57,-0.28q0.49,-0.27 0.49,-0.85q0,-0.48 -0.4,-0.75q-0.39,-0.28 -1.34,-0.47q-2.17,-0.43 -2.93,-0.8q-0.75,-0.37 -1.15,-0.95q-0.4,-0.6 -0.4,-1.45q0,-1.42 1.09,-2.2q1.09,-0.79 3.09,-0.79q1.76,0 2.83,0.68q1.07,0.68 1.33,1.98l-2.26,0.23q-0.11,-0.6 -0.54,-0.89q-0.43,-0.3 -1.36,-0.3q-0.91,0 -1.37,0.24q-0.45,0.23 -0.45,0.77q0,0.43 0.34,0.69q0.36,0.24 1.19,0.41q1.16,0.23 2.05,0.49q0.9,0.24 1.44,0.59q0.55,0.35 0.86,0.89q0.33,0.54 0.33,1.39z" fill="#ffffff" id="path333"/>
   <path d="m223.63,251.31q-2.23,0 -3.42,-1.31q-1.19,-1.32 -1.19,-3.85q0,-2.44 1.21,-3.75q1.21,-1.31 3.44,-1.31q2.12,0 3.24,1.41q1.12,1.4 1.12,4.12l0,0.07l-6.32,0q0,1.44 0.52,2.18q0.54,0.73 1.53,0.73q1.35,0 1.71,-1.18l2.42,0.21q-1.05,2.68 -4.26,2.68zm0,-8.61q-0.9,0 -1.4,0.63q-0.48,0.63 -0.51,1.76l3.83,0q-0.07,-1.2 -0.57,-1.79q-0.5,-0.6 -1.35,-0.6z" fill="#ffffff" id="path335"/>
   <path d="m232.51,251.29q-1.13,0 -1.74,-0.61q-0.62,-0.62 -0.62,-1.87l0,-5.81l-1.24,0l0,-1.73l1.37,0l0.8,-2.32l1.61,0l0,2.32l1.87,0l0,1.73l-1.87,0l0,5.12q0,0.72 0.27,1.07q0.28,0.34 0.85,0.34q0.3,0 0.86,-0.13l0,1.58q-0.95,0.31 -2.16,0.31z" fill="#ffffff" id="path337"/>
  </g>
  <g fill="#000000" font-family="&#x27;Liberation Sans&#x27;" font-size="32px" font-style="normal" font-weight="bold" id="flowRoot302">
   <path d="m326.01,134.78l0,-5.53q0,-2.6 -1.49,-2.6q-0.78,0 -1.27,0.8q-0.48,0.79 -0.48,2.05l0,5.28l-2.56,0l0,-7.65q0,-0.8 -0.03,-1.3q-0.02,-0.51 -0.05,-0.91l2.45,0q0.02,0.17 0.07,0.93q0.04,0.75 0.04,1.03l0.04,0q0.47,-1.13 1.18,-1.64q0.71,-0.51 1.69,-0.51q2.26,0 2.75,2.15l0.05,0q0.5,-1.15 1.2,-1.65q0.71,-0.5 1.79,-0.5q1.44,0 2.2,0.98q0.75,0.98 0.75,2.81l0,6.26l-2.54,0l0,-5.53q0,-2.6 -1.49,-2.6q-0.75,0 -1.24,0.73q-0.47,0.72 -0.51,2l0,5.4l-2.55,0z" fill="#ffffff" id="path340"/>
   <path d="m336.79,123.14l0,-1.88l2.57,0l0,1.88l-2.57,0zm0,11.64l0,-9.86l2.57,0l0,9.86l-2.57,0z" fill="#ffffff" id="path342"/>
   <path d="m348.36,134.78q-0.04,-0.13 -0.09,-0.68q-0.05,-0.56 -0.05,-0.92l-0.03,0q-0.83,1.79 -3.16,1.79q-1.72,0 -2.66,-1.34q-0.94,-1.35 -0.94,-3.77q0,-2.45 0.99,-3.78q0.99,-1.34 2.81,-1.34q1.04,0 1.8,0.44q0.77,0.43 1.18,1.3l0.01,0l-0.01,-1.62l0,-3.6l2.56,0l0,11.37q0,0.91 0.07,2.15l-2.48,0zm-0.12,-4.98q0,-1.6 -0.54,-2.45q-0.52,-0.87 -1.56,-0.87q-1.03,0 -1.53,0.84q-0.51,0.83 -0.51,2.54q0,3.36 2.02,3.36q1.01,0 1.57,-0.89q0.55,-0.89 0.55,-2.53z" fill="#ffffff" id="path344"/>
   <path d="m359.77,134.78l0,-5.53q0,-2.6 -1.76,-2.6q-0.93,0 -1.5,0.81q-0.57,0.79 -0.57,2.04l0,5.28l-2.56,0l0,-7.65q0,-0.8 -0.02,-1.3q-0.02,-0.51 -0.05,-0.91l2.44,0q0.03,0.17 0.08,0.93q0.04,0.75 0.04,1.03l0.04,0q0.52,-1.13 1.3,-1.64q0.79,-0.51 1.87,-0.51q1.57,0 2.41,0.97q0.83,0.96 0.83,2.82l0,6.26l-2.55,0z" fill="#ffffff" id="path346"/>
   <path d="m364.79,123.14l0,-1.88l2.57,0l0,1.88l-2.57,0zm0,11.64l0,-9.86l2.57,0l0,9.86l-2.57,0z" fill="#ffffff" id="path348"/>
   <path d="m374.1,138.74q-1.8,0 -2.91,-0.69q-1.09,-0.69 -1.35,-1.96l2.57,-0.3q0.13,0.59 0.58,0.93q0.45,0.33 1.18,0.33q1.07,0 1.56,-0.65q0.49,-0.66 0.49,-1.95l0,-0.52l0.02,-0.98l-0.02,0q-0.84,1.82 -3.17,1.82q-1.72,0 -2.67,-1.3q-0.95,-1.29 -0.95,-3.7q0,-2.41 0.98,-3.73q0.97,-1.31 2.83,-1.31q2.15,0 2.98,1.78l0.05,0q0,-0.32 0.04,-0.87q0.04,-0.55 0.09,-0.72l2.42,0q-0.05,0.99 -0.05,2.28l0,7.28q0,2.11 -1.2,3.18q-1.19,1.08 -3.47,1.08zm2.14,-9.02q0,-1.53 -0.54,-2.37q-0.54,-0.86 -1.54,-0.86q-2.06,0 -2.06,3.28q0,3.22 2.04,3.22q1.02,0 1.56,-0.85q0.54,-0.86 0.54,-2.42z" fill="#ffffff" id="path350"/>
   <path d="m383.91,126.89q0.52,-1.13 1.3,-1.64q0.79,-0.51 1.87,-0.51q1.57,0 2.41,0.97q0.83,0.96 0.83,2.82l0,6.25l-2.55,0l0,-5.52q0,-2.6 -1.76,-2.6q-0.93,0 -1.5,0.8q-0.57,0.8 -0.57,2.05l0,5.27l-2.56,0l0,-13.52l2.56,0l0,3.69q0,0.99 -0.07,1.94l0.04,0z" fill="#ffffff" id="path352"/>
   <path d="m395.32,134.95q-1.13,0 -1.74,-0.61q-0.61,-0.62 -0.61,-1.87l0,-5.82l-1.25,0l0,-1.73l1.38,0l0.8,-2.31l1.6,0l0,2.31l1.87,0l0,1.73l-1.87,0l0,5.13q0,0.72 0.28,1.06q0.27,0.34 0.84,0.34q0.3,0 0.86,-0.13l0,1.59q-0.95,0.31 -2.16,0.31z" fill="#ffffff" id="path354"/>
  </g>
  <g fill="#000000" font-family="&#x27;Liberation Sans&#x27;" font-size="32px" font-style="normal" font-weight="bold" id="flowRoot310">
   <path d="m181.4,16.67q0,1.43 -1.17,2.25q-1.17,0.81 -3.24,0.81q-2.03,0 -3.12,-0.64q-1.07,-0.64 -1.43,-2l2.25,-0.34q0.19,0.7 0.66,1q0.47,0.29 1.64,0.29q1.08,0 1.57,-0.28q0.49,-0.27 0.49,-0.85q0,-0.48 -0.4,-0.75q-0.39,-0.28 -1.34,-0.47q-2.17,-0.43 -2.93,-0.8q-0.75,-0.37 -1.15,-0.95q-0.4,-0.6 -0.4,-1.45q0,-1.42 1.09,-2.2q1.09,-0.79 3.09,-0.79q1.76,0 2.82,0.68q1.08,0.68 1.34,1.98l-2.27,0.23q-0.11,-0.6 -0.53,-0.89q-0.43,-0.3 -1.36,-0.3q-0.91,0 -1.37,0.24q-0.46,0.23 -0.46,0.77q0,0.43 0.35,0.69q0.36,0.24 1.19,0.41q1.15,0.23 2.05,0.49q0.9,0.24 1.44,0.59q0.54,0.35 0.86,0.89q0.33,0.54 0.33,1.39z" fill="#ffffff" id="path357"/>
   <path d="m185.89,9.69l0,5.53q0,2.6 1.75,2.6q0.93,0 1.5,-0.79q0.57,-0.81 0.57,-2.06l0,-5.28l2.56,0l0,7.65q0,1.26 0.08,2.21l-2.45,0q-0.1,-1.31 -0.1,-1.96l-0.05,0q-0.51,1.12 -1.3,1.63q-0.79,0.51 -1.87,0.51q-1.57,0 -2.41,-0.95q-0.84,-0.97 -0.84,-2.83l0,-6.26l2.56,0z" fill="#ffffff" id="path359"/>
   <path d="m201.28,19.55l0,-5.53q0,-2.6 -1.76,-2.6q-0.93,0 -1.5,0.8q-0.57,0.79 -0.57,2.04l0,5.29l-2.56,0l0,-7.66q0,-0.79 -0.03,-1.29q-0.01,-0.51 -0.04,-0.91l2.44,0q0.03,0.17 0.07,0.93q0.05,0.74 0.05,1.03l0.04,0q0.51,-1.13 1.3,-1.64q0.78,-0.51 1.87,-0.51q1.57,0 2.4,0.96q0.84,0.97 0.84,2.83l0,6.26l-2.55,0z" fill="#ffffff" id="path361"/>
   <path d="m206.3,19.55l0,-7.55q0,-0.81 -0.03,-1.35q-0.01,-0.54 -0.04,-0.96l2.44,0q0.03,0.16 0.07,1q0.05,0.83 0.05,1.1l0.04,0q0.37,-1.04 0.66,-1.45q0.29,-0.43 0.69,-0.63q0.41,-0.21 1.01,-0.21q0.49,0 0.79,0.13l0,2.15q-0.62,-0.14 -1.09,-0.14q-0.96,0 -1.5,0.77q-0.53,0.78 -0.53,2.3l0,4.84l-2.56,0z" fill="#ffffff" id="path363"/>
   <path d="m213.56,7.91l0,-1.89l2.56,0l0,1.89l-2.56,0zm0,11.64l0,-9.86l2.56,0l0,9.86l-2.56,0z" fill="#ffffff" id="path365"/>
   <path d="m227.05,16.67q0,1.43 -1.18,2.25q-1.17,0.81 -3.23,0.81q-2.04,0 -3.12,-0.64q-1.08,-0.64 -1.43,-2l2.25,-0.34q0.19,0.7 0.65,1q0.48,0.29 1.65,0.29q1.07,0 1.56,-0.28q0.5,-0.27 0.5,-0.85q0,-0.48 -0.41,-0.75q-0.39,-0.28 -1.34,-0.47q-2.16,-0.43 -2.92,-0.8q-0.76,-0.37 -1.16,-0.95q-0.39,-0.6 -0.39,-1.45q0,-1.42 1.08,-2.2q1.1,-0.79 3.09,-0.79q1.76,0 2.83,0.68q1.07,0.68 1.34,1.98l-2.27,0.23q-0.11,-0.6 -0.54,-0.89q-0.43,-0.3 -1.36,-0.3q-0.91,0 -1.36,0.24q-0.46,0.23 -0.46,0.77q0,0.43 0.35,0.69q0.35,0.24 1.18,0.41q1.16,0.23 2.05,0.49q0.91,0.24 1.44,0.59q0.55,0.35 0.87,0.89q0.33,0.54 0.33,1.39z" fill="#ffffff" id="path367"/>
   <path d="m233.16,19.73q-2.22,0 -3.42,-1.31q-1.19,-1.32 -1.19,-3.85q0,-2.44 1.21,-3.75q1.22,-1.31 3.44,-1.31q2.12,0 3.24,1.41q1.13,1.4 1.13,4.12l0,0.07l-6.33,0q0,1.44 0.53,2.18q0.54,0.73 1.52,0.73q1.36,0 1.71,-1.18l2.42,0.21q-1.05,2.68 -4.26,2.68zm0,-8.61q-0.9,0 -1.39,0.63q-0.48,0.63 -0.51,1.76l3.83,0q-0.08,-1.2 -0.58,-1.79q-0.5,-0.6 -1.35,-0.6z" fill="#ffffff" id="path369"/>
  </g>
  <rect height="21" id="svg_1" width="126" x="138" y="0.5"/>
  <rect height="21" id="svg_2" width="90" x="0.5" y="118.5"/>
  <rect height="21" id="svg_3" width="93" x="316.5" y="120.5"/>
  <rect height="21" id="svg_4" width="126" x="143.5" y="238.5"/>
  <text fill="#ffffff" font-family="Monospace" font-size="24" id="svg_5" letter-spacing="2" stroke-width="0" text-anchor="middle" textLength="0" transform="matrix(0.564261 0 0 0.765184 100.584 8.7763)" word-spacing="1" x="186.82" xml:space="preserve" y="16.79">nascer do sol</text>
  <text fill="#ffffff" font-family="Monospace" font-size="24" id="svg_7" letter-spacing="2" stroke-width="0" text-anchor="middle" transform="matrix(0.564261 0 0 0.765184 100.584 6.7763)" word-spacing="1" x="461.52" xml:space="preserve" y="166.36">meia-noite</text>
  <text fill="#ffffff" font-family="Monospace" font-size="24" id="svg_8" letter-spacing="2" stroke-width="0" text-anchor="middle" transform="matrix(0.564261 0 0 0.765184 100.584 6.7763)" word-spacing="1" x="186.82" xml:space="preserve" y="323.18">pôr do sol</text>
  <text fill="#ffffff" font-family="Monospace" font-size="24" id="svg_9" letter-spacing="2" stroke-width="0" text-anchor="middle" transform="matrix(0.564261 0 0 0.765184 100.584 6.7763)" word-spacing="1" x="-73.69" xml:space="preserve" y="166.36">meio-dia</text>
 </g></svg>