<svg xmlns="http://www.w3.org/2000/svg" xmlns:xlink="http://www.w3.org/1999/xlink" width="1080" zoomAndPan="magnify" viewBox="0 0 810 1012.49997" height="1350" preserveAspectRatio="xMidYMid meet" version="1.0"><defs><clipPath id="9013e12525"><path d="M 18.351562 119 L 791.96875 119 L 791.96875 893 L 18.351562 893 Z M 18.351562 119 " clip-rule="nonzero"/></clipPath></defs><g clip-path="url(#9013e12525)"><path fill="#ffffff" d="M 791.636719 505.886719 C 791.636719 512.214844 791.480469 518.542969 791.167969 524.867188 C 790.859375 531.191406 790.394531 537.5 789.773438 543.800781 C 789.15625 550.101562 788.378906 556.382812 787.449219 562.644531 C 786.519531 568.90625 785.441406 575.140625 784.207031 581.351562 C 782.972656 587.558594 781.585938 593.734375 780.046875 599.875 C 778.511719 606.015625 776.824219 612.117188 774.988281 618.175781 C 773.148438 624.234375 771.164062 630.242188 769.03125 636.203125 C 766.902344 642.164062 764.625 648.070312 762.203125 653.917969 C 759.78125 659.765625 757.21875 665.550781 754.515625 671.277344 C 751.808594 676.996094 748.964844 682.652344 745.980469 688.234375 C 743 693.816406 739.878906 699.324219 736.628906 704.753906 C 733.375 710.183594 729.988281 715.53125 726.476562 720.796875 C 722.960938 726.058594 719.316406 731.234375 715.546875 736.320312 C 711.777344 741.40625 707.886719 746.394531 703.871094 751.289062 C 699.859375 756.183594 695.726562 760.976562 691.476562 765.664062 C 687.226562 770.355469 682.867188 774.9375 678.390625 779.414062 C 673.917969 783.890625 669.335938 788.253906 664.648438 792.507812 C 659.960938 796.761719 655.171875 800.894531 650.277344 804.910156 C 645.386719 808.925781 640.398438 812.820312 635.316406 816.589844 C 630.234375 820.359375 625.0625 824.003906 619.800781 827.523438 C 614.539062 831.039062 609.195312 834.425781 603.769531 837.679688 C 598.339844 840.933594 592.835938 844.050781 587.257812 847.039062 C 581.675781 850.023438 576.027344 852.867188 570.304688 855.574219 C 564.585938 858.28125 558.800781 860.84375 552.957031 863.269531 C 547.109375 865.695312 541.207031 867.972656 535.25 870.105469 C 529.292969 872.238281 523.289062 874.222656 517.234375 876.058594 C 511.175781 877.898438 505.082031 879.585938 498.941406 881.125 C 492.804688 882.660156 486.632812 884.042969 480.425781 885.28125 C 474.21875 886.515625 467.988281 887.597656 461.730469 888.53125 C 455.472656 889.457031 449.191406 890.230469 442.894531 890.851562 C 436.601562 891.472656 430.289062 891.941406 423.972656 892.25 C 417.652344 892.5625 411.324219 892.71875 405 892.71875 C 398.671875 892.71875 392.347656 892.5625 386.027344 892.25 C 379.707031 891.941406 373.398438 891.476562 367.101562 890.855469 C 360.800781 890.234375 354.523438 889.460938 348.265625 888.53125 C 342.003906 887.601562 335.773438 886.519531 329.566406 885.28125 C 323.359375 884.046875 317.1875 882.660156 311.050781 881.125 C 304.914062 879.585938 298.816406 877.898438 292.761719 876.058594 C 286.707031 874.222656 280.703125 872.238281 274.742188 870.105469 C 268.785156 867.972656 262.882812 865.695312 257.039062 863.269531 C 251.191406 860.84375 245.40625 858.28125 239.6875 855.574219 C 233.96875 852.867188 228.316406 850.023438 222.738281 847.039062 C 217.15625 844.050781 211.652344 840.933594 206.226562 837.679688 C 200.796875 834.425781 195.453125 831.039062 190.191406 827.523438 C 184.929688 824.003906 179.757812 820.359375 174.675781 816.589844 C 169.59375 812.820312 164.605469 808.925781 159.71875 804.910156 C 154.824219 800.894531 150.035156 796.761719 145.347656 792.507812 C 140.65625 788.253906 136.078125 783.890625 131.601562 779.414062 C 127.125 774.9375 122.765625 770.355469 118.515625 765.664062 C 114.265625 760.976562 110.136719 756.183594 106.121094 751.289062 C 102.109375 746.394531 98.214844 741.40625 94.445312 736.320312 C 90.675781 731.234375 87.035156 726.058594 83.519531 720.796875 C 80.003906 715.53125 76.621094 710.183594 73.367188 704.757812 C 70.113281 699.324219 66.996094 693.816406 64.011719 688.234375 C 61.03125 682.652344 58.1875 676.996094 55.480469 671.273438 C 52.773438 665.550781 50.210938 659.765625 47.789062 653.917969 C 45.367188 648.070312 43.089844 642.164062 40.960938 636.203125 C 38.828125 630.242188 36.84375 624.234375 35.007812 618.175781 C 33.171875 612.117188 31.484375 606.015625 29.945312 599.875 C 28.410156 593.734375 27.023438 587.5625 25.789062 581.355469 C 24.554688 575.144531 23.472656 568.90625 22.542969 562.644531 C 21.613281 556.382812 20.84375 550.101562 20.222656 543.800781 C 19.601562 537.5 19.136719 531.191406 18.824219 524.867188 C 18.515625 518.542969 18.359375 512.214844 18.359375 505.886719 C 18.359375 499.554688 18.515625 493.230469 18.824219 486.90625 C 19.136719 480.582031 19.601562 474.269531 20.222656 467.96875 C 20.84375 461.667969 21.613281 455.386719 22.542969 449.125 C 23.472656 442.863281 24.554688 436.628906 25.789062 430.417969 C 27.023438 424.207031 28.410156 418.03125 29.945312 411.890625 C 31.484375 405.753906 33.171875 399.652344 35.007812 393.59375 C 36.84375 387.535156 38.828125 381.527344 40.960938 375.5625 C 43.089844 369.605469 45.367188 363.699219 47.789062 357.847656 C 50.210938 352 52.773438 346.210938 55.480469 340.492188 C 58.1875 334.769531 61.03125 329.117188 64.011719 323.535156 C 66.996094 317.949219 70.113281 312.441406 73.367188 307.011719 C 76.621094 301.585938 80.003906 296.238281 83.519531 290.972656 C 87.035156 285.710938 90.675781 280.535156 94.445312 275.449219 C 98.214844 270.363281 102.109375 265.375 106.121094 260.480469 C 110.136719 255.589844 114.265625 250.792969 118.515625 246.105469 C 122.765625 241.414062 127.125 236.832031 131.601562 232.355469 C 136.078125 227.875 140.65625 223.511719 145.347656 219.261719 C 150.035156 215.011719 154.824219 210.878906 159.714844 206.859375 C 164.605469 202.847656 169.59375 198.949219 174.675781 195.175781 C 179.757812 191.40625 184.929688 187.765625 190.191406 184.246094 C 195.453125 180.730469 200.796875 177.34375 206.222656 174.089844 C 211.652344 170.832031 217.15625 167.710938 222.738281 164.730469 C 228.316406 161.746094 233.96875 158.898438 239.6875 156.195312 C 245.40625 153.488281 251.191406 150.921875 257.035156 148.5 C 262.882812 146.078125 268.785156 143.800781 274.742188 141.667969 C 280.699219 139.535156 286.707031 137.550781 292.761719 135.710938 C 298.816406 133.875 304.914062 132.1875 311.050781 130.648438 C 317.1875 129.109375 323.359375 127.726562 329.566406 126.488281 C 335.773438 125.253906 342.003906 124.171875 348.265625 123.242188 C 354.523438 122.316406 360.800781 121.539062 367.101562 120.917969 C 373.398438 120.300781 379.707031 119.832031 386.027344 119.523438 C 392.347656 119.210938 398.671875 119.058594 405 119.054688 C 411.324219 119.058594 417.652344 119.210938 423.972656 119.523438 C 430.289062 119.832031 436.601562 120.300781 442.894531 120.917969 C 449.191406 121.539062 455.472656 122.316406 461.730469 123.242188 C 467.988281 124.171875 474.21875 125.25 480.425781 126.488281 C 486.632812 127.722656 492.804688 129.109375 498.941406 130.648438 C 505.082031 132.1875 511.175781 133.875 517.230469 135.710938 C 523.289062 137.550781 529.292969 139.535156 535.25 141.667969 C 541.207031 143.800781 547.109375 146.078125 552.957031 148.5 C 558.800781 150.921875 564.585938 153.488281 570.304688 156.195312 C 576.027344 158.898438 581.675781 161.746094 587.257812 164.730469 C 592.835938 167.710938 598.339844 170.832031 603.769531 174.089844 C 609.195312 177.34375 614.539062 180.730469 619.800781 184.246094 C 625.0625 187.761719 630.234375 191.40625 635.316406 195.175781 C 640.398438 198.949219 645.386719 202.84375 650.277344 206.859375 C 655.167969 210.875 659.957031 215.007812 664.648438 219.261719 C 669.335938 223.511719 673.914062 227.875 678.390625 232.351562 C 682.863281 236.832031 687.226562 241.414062 691.476562 246.105469 C 695.726562 250.792969 699.855469 255.585938 703.871094 260.476562 C 707.886719 265.375 711.777344 270.363281 715.546875 275.449219 C 719.316406 280.535156 722.957031 285.710938 726.472656 290.972656 C 729.988281 296.234375 733.375 301.582031 736.628906 307.011719 C 739.878906 312.441406 743 317.949219 745.980469 323.53125 C 748.960938 329.113281 751.804688 334.769531 754.511719 340.492188 C 757.21875 346.210938 759.78125 352 762.203125 357.847656 C 764.625 363.699219 766.902344 369.605469 769.03125 375.5625 C 771.164062 381.527344 773.148438 387.535156 774.988281 393.59375 C 776.824219 399.652344 778.511719 405.75 780.046875 411.890625 C 781.585938 418.03125 782.972656 424.207031 784.207031 430.414062 C 785.441406 436.625 786.519531 442.859375 787.449219 449.121094 C 788.378906 455.386719 789.15625 461.667969 789.773438 467.964844 C 790.394531 474.269531 790.859375 480.578125 791.167969 486.90625 C 791.480469 493.230469 791.636719 499.554688 791.636719 505.886719 Z M 791.636719 505.886719 " fill-opacity="1" fill-rule="nonzero"/></g><path stroke-linecap="round" transform="matrix(2.305575, 0, 0, 2.305575, -70417.899094, -21406.397413)" fill-opacity="1" fill="#000000" fill-rule="evenodd" stroke-linejoin="round" d="M 30640.400053 9422.348917 L 30685.699549 9422.030396 L 30795.699541 9582.119563 L 30750.000199 9581.719718 Z M 30640.400053 9422.348917 " stroke="#ffffff" stroke-width="2.14" stroke-opacity="1" stroke-miterlimit="1.5"/><path stroke-linecap="round" transform="matrix(2.305575, 0, 0, 2.305575, -70417.899094, -21406.397413)" fill-opacity="1" fill="#000000" fill-rule="evenodd" stroke-linejoin="round" d="M 30776.801737 9422.030396 L 30790.899695 9422.030396 L 30653.999898 9582.119563 L 30640.400053 9582.119563 Z M 30776.801737 9422.030396 " stroke="#ffffff" stroke-width="2.14" stroke-opacity="1" stroke-miterlimit="1.5"/><path fill="#ffffff" d="M 268.972656 345.464844 L 317.386719 345.742188 L 541.257812 666.308594 L 492.839844 666.238281 Z M 268.972656 345.464844 " fill-opacity="1" fill-rule="evenodd"/><path fill="#ffffff" d="M 268.972656 345.464844 L 317.386719 345.742188 L 541.257812 666.308594 L 492.839844 666.238281 Z M 272.65625 347.421875 C 272.65625 347.421875 493.765625 664.300781 493.765625 664.300781 C 493.765625 664.300781 537.570312 664.371094 537.570312 664.371094 L 316.234375 347.675781 Z M 272.65625 347.421875 " fill-opacity="1" fill-rule="evenodd"/></svg>