<?xml version="1.0" encoding="utf-8"?>
<!-- Generator: Adobe Illustrator 25.3.1, SVG Export Plug-In . SVG Version: 6.00 Build 0)  -->
<svg version="1.1" id="Layer_1" xmlns="http://www.w3.org/2000/svg" xmlns:xlink="http://www.w3.org/1999/xlink" x="0px" y="0px"
	 viewBox="0 0 56.6 56.6" style="enable-background:new 0 0 56.6 56.6;" xml:space="preserve">
<style type="text/css">
	.st0{fill:#F6F3F8;}
	.st1{fill:#FFFFFF;}
</style>
<g>
	<g>
		<circle class="st0" cx="28.3" cy="28.3" r="27.3"/>
		<path d="M28.3,56.6C12.7,56.6,0,43.9,0,28.3S12.7,0,28.3,0s28.3,12.7,28.3,28.3S43.9,56.6,28.3,56.6z M28.3,2
			C13.8,2,2,13.8,2,28.3c0,14.5,11.8,26.3,26.3,26.3c14.5,0,26.3-11.8,26.3-26.3S42.8,2,28.3,2z"/>
	</g>
	<g>
		<g>
			<circle class="st1" cx="28.3" cy="12.8" r="4.7"/>
			<path d="M28.3,18.4c-3.1,0-5.7-2.5-5.7-5.7s2.5-5.7,5.7-5.7c3.1,0,5.7,2.5,5.7,5.7S31.4,18.4,28.3,18.4z M28.3,9
				c-2.1,0-3.7,1.7-3.7,3.7s1.7,3.7,3.7,3.7c2.1,0,3.7-1.7,3.7-3.7S30.4,9,28.3,9z"/>
		</g>
		<g>
			<path class="st1" d="M43.7,22.9c-3.8,0.9-7.3,1.7-10.7,2.1c0.1,13.2,1.6,16.1,3.3,20.3c0.5,1.2-0.1,2.6-1.3,3
				c-1.2,0.5-2.6-0.1-3-1.3c-1.1-2.9-2.2-5.3-2.9-10.3h-1.3c-0.7,4.9-1.8,7.3-2.9,10.3c-0.5,1.2-1.8,1.8-3,1.3
				c-1.2-0.5-1.8-1.8-1.3-3C22,41,23.5,38.2,23.6,25c-3.5-0.4-7-1.2-10.7-2.1c-1.1-0.3-1.8-1.4-1.6-2.5c0.3-1.1,1.4-1.8,2.5-1.6
				c12.6,3,16.2,3,28.9,0c1.1-0.3,2.2,0.4,2.5,1.6C45.5,21.5,44.8,22.6,43.7,22.9z"/>
			<path d="M22.6,49.5c-0.4,0-0.8-0.1-1.2-0.2c-0.8-0.3-1.5-0.9-1.8-1.8c-0.4-0.8-0.4-1.7-0.1-2.5l0.3-0.8c1.5-3.7,2.7-6.9,2.9-18.3
				c-3.4-0.4-6.8-1.2-10-2c-1.6-0.4-2.7-2-2.3-3.7c0.2-0.8,0.7-1.5,1.4-1.9c0.7-0.4,1.5-0.6,2.3-0.4c12.5,2.9,15.9,2.9,28.4,0
				c1.6-0.4,3.3,0.6,3.7,2.3c0.4,1.6-0.6,3.3-2.3,3.7l0,0c-3.4,0.8-6.7,1.5-10,2c0.2,11.5,1.4,14.7,2.9,18.3l0.3,0.8
				c0.7,1.7-0.2,3.6-1.9,4.3s-3.6-0.2-4.3-1.9l-0.3-0.9c-0.9-2.2-1.7-4.3-2.3-7.6c-0.6,3.3-1.4,5.4-2.3,7.6l-0.3,0.9
				c-0.3,0.8-0.9,1.5-1.8,1.8C23.5,49.4,23,49.5,22.6,49.5z M13.4,19.7c-0.5,0-1,0.4-1.1,0.9c-0.1,0.6,0.2,1.2,0.8,1.4
				c3.4,0.8,7.1,1.6,10.6,2l0.9,0.1l0,0.9c-0.1,12.5-1.5,15.9-3,19.9l-0.3,0.8c-0.1,0.3-0.1,0.7,0,1.1c0.1,0.3,0.4,0.6,0.8,0.7
				c0.3,0.1,0.7,0.1,1.1,0c0.3-0.1,0.6-0.4,0.7-0.8l0.3-0.9c1-2.5,1.9-4.8,2.5-9.2l0.1-0.8h2.9l0.1,0.8c0.6,4.3,1.5,6.7,2.5,9.2
				l0.4,0.9c0.3,0.7,1.1,1.1,1.8,0.8c0.7-0.3,1.1-1.1,0.8-1.8L35,44.8c-1.6-3.9-2.9-7.3-3-19.9l0-0.9l0.9-0.1c3.5-0.4,7-1.2,10.6-2
				l0,0c0.6-0.1,1-0.8,0.8-1.4c-0.1-0.6-0.8-1-1.4-0.8c-12.7,3-16.6,3-29.3,0C13.6,19.7,13.5,19.7,13.4,19.7z"/>
		</g>
	</g>
</g>
</svg>
