<?xml version="1.0" encoding="utf-8"?>
<!-- Generator: Adobe Illustrator 24.1.0, SVG Export Plug-In . SVG Version: 6.00 Build 0)  -->
<svg version="1.1" id="Layer_1" xmlns="http://www.w3.org/2000/svg" xmlns:xlink="http://www.w3.org/1999/xlink" x="0px" y="0px"
	 viewBox="0 0 56.59 58.41" style="enable-background:new 0 0 56.59 58.41;" xml:space="preserve">
<style type="text/css">
	.st0{fill:#F6F3F8;}
</style>
<g>
	<g>
		
			<ellipse transform="matrix(0.1602 -0.9871 0.9871 0.1602 -5.9615 53.2189)" class="st0" cx="28.29" cy="30.11" rx="27.29" ry="27.29"/>
		<path d="M28.29,58.41C12.69,58.41,0,45.71,0,30.11S12.69,1.82,28.29,1.82s28.29,12.69,28.29,28.29S43.9,58.41,28.29,58.41z
			 M28.29,3.82C13.8,3.82,2,15.61,2,30.11c0,14.5,11.8,26.3,26.29,26.3s26.29-11.8,26.29-26.3C54.59,15.61,42.79,3.82,28.29,3.82z"
			/>
	</g>
	<path d="M28.29,48.63c-10.21,0-18.52-8.31-18.52-18.52S18.08,11.6,28.29,11.6s18.52,8.31,18.52,18.52S38.51,48.63,28.29,48.63z
		 M28.29,13.6c-9.11,0-16.52,7.41-16.52,16.52c0,9.11,7.41,16.52,16.52,16.52c9.11,0,16.52-7.41,16.52-16.52
		C44.81,21.01,37.4,13.6,28.29,13.6z"/>
	<path d="M28.29,37.58c-4.12,0-7.47-3.35-7.47-7.47c0-4.12,3.35-7.47,7.47-7.47s7.47,3.35,7.47,7.47
		C35.77,34.23,32.41,37.58,28.29,37.58z M28.29,24.64c-3.02,0-5.47,2.45-5.47,5.47c0,3.02,2.45,5.47,5.47,5.47
		c3.02,0,5.47-2.45,5.47-5.47C33.77,27.1,31.31,24.64,28.29,24.64z"/>
	<g>
		<path d="M28.29,31.11c-0.23,0-0.47-0.08-0.65-0.24c-0.42-0.36-0.46-0.99-0.1-1.41l15.05-17.34c0.36-0.42,0.99-0.46,1.41-0.1
			c0.42,0.36,0.46,0.99,0.1,1.41L29.05,30.77C28.85,31,28.57,31.11,28.29,31.11z"/>
		<g>
			<polygon points="42.36,13.22 43.64,5.87 48.73,0 49.16,6.06 55.23,5.64 50.13,11.51 43.03,13.81 			"/>
		</g>
	</g>
</g>
</svg>
