<?xml version="1.0" encoding="utf-8"?>
<!-- Generator: Adobe Illustrator 24.1.0, SVG Export Plug-In . SVG Version: 6.00 Build 0)  -->
<svg version="1.1" id="Layer_1" xmlns="http://www.w3.org/2000/svg" xmlns:xlink="http://www.w3.org/1999/xlink" x="0px" y="0px"
	 viewBox="0 0 58 42.41" style="enable-background:new 0 0 58 42.41;" xml:space="preserve">
<style type="text/css">
	.st0{fill:#F6F3F8;}
</style>
<g>
	<g>
		<g>
			<g>
				<g>
					<path class="st0" d="M48.4,33.92H2.99c-1.1,0-1.99-0.89-1.99-1.99V2.99C1,1.89,1.89,1,2.99,1h45.4c1.1,0,1.99,0.89,1.99,1.99
						v28.94C50.39,33.03,49.49,33.92,48.4,33.92z"/>
					<path d="M48.39,34.92H2.99C1.34,34.92,0,33.58,0,31.93V2.99C0,1.34,1.34,0,2.99,0h45.4c1.65,0,2.99,1.34,2.99,2.99v28.94
						C51.39,33.58,50.04,34.92,48.39,34.92z M2.99,2C2.44,2,2,2.44,2,2.99v28.94c0,0.55,0.44,0.99,0.99,0.99h45.4
						c0.55,0,0.99-0.44,0.99-0.99V2.99c0-0.55-0.44-0.99-0.99-0.99H2.99z"/>
				</g>
				<g>
					<path class="st0" d="M32.63,41.41H18.76c-0.88,0-1.33-1.05-0.73-1.68l4.05-4.3h7.22l4.05,4.3
						C33.95,40.36,33.5,41.41,32.63,41.41z"/>
					<path d="M32.63,42.41H18.76c-0.81,0-1.51-0.46-1.83-1.21c-0.32-0.74-0.18-1.57,0.38-2.16l4.35-4.62h8.08l4.35,4.62
						c0.56,0.59,0.7,1.42,0.38,2.16C34.15,41.93,33.43,42.41,32.63,42.41z M22.52,36.42l-3.76,3.99l13.88,0l-3.77-3.99H22.52z"/>
				</g>
			</g>
		</g>
	</g>
	<g>
		<path class="st0" d="M57,28.66v-4.41h-4.25c-0.19,0-0.48-1.31-0.86-1.99l3.09-3l-3.12-3.07l-2.94,3.04
			c-0.79-0.5-1.62-0.85-2.51-1.09v-4.47h-4.41v4.47c-0.88,0.21-1.72,0.55-2.45,0.98l-2.91-2.88l-3.14,3.12l2.87,2.69
			c-0.44,0.73-0.78,1.31-0.99,2.19h-3.96v4.41h3.96c0.23,0.88,0.61,1.98,1.11,2.77l-2.99,3.08l3.12,3.16l3.15-3.05
			c0.67,0.38,1.36,0.69,2.24,0.88v3.74h4.41v-3.74c0.88-0.21,1.57-0.55,2.3-0.98l2.85,2.88l3.1-3.12l-2.89-3.07
			c0.44-0.73,0.76-1.68,0.97-2.56H57z M44.06,31.01c-2.31,0-4.19-1.88-4.19-4.19c0-2.31,1.88-4.19,4.19-4.19
			c2.31,0,4.19,1.88,4.19,4.19C48.25,29.14,46.38,31.01,44.06,31.01z"/>
		<path d="M47.42,40.25h-6.41v-3.98c-0.36-0.12-0.71-0.26-1.07-0.43l-3.34,3.24l-4.5-4.57l3.16-3.25c-0.26-0.54-0.47-1.11-0.63-1.6
			h-4.21v-6.41h4.22c0.14-0.37,0.29-0.69,0.47-1.01l-3.04-2.86l4.57-4.55l3.09,3.05c0.4-0.2,0.83-0.37,1.27-0.51v-4.72h6.41v4.73
			c0.46,0.16,0.91,0.35,1.33,0.57l3.1-3.2l4.56,4.5l-3.32,3.23c0.08,0.2,0.15,0.4,0.21,0.6c0.02,0.05,0.04,0.11,0.05,0.16H58v6.41
			h-4.49c-0.13,0.44-0.31,0.92-0.52,1.39l3.07,3.25l-4.49,4.52l-3.02-3.06c-0.33,0.17-0.71,0.34-1.12,0.49V40.25z M43.01,38.25h2.41
			v-3.52l0.76-0.19c0.68-0.17,1.27-0.42,2.03-0.87l0.67-0.4l2.69,2.73l1.71-1.72l-2.75-2.91l0.39-0.65
			c0.33-0.56,0.64-1.37,0.86-2.28l0.18-0.76H56v-2.41h-3.25c-0.82,0-1.07-0.73-1.34-1.5c-0.12-0.34-0.26-0.76-0.39-0.99l-0.38-0.67
			l2.91-2.83l-1.67-1.65l-2.8,2.9l-0.69-0.44c-0.67-0.43-1.4-0.74-2.23-0.96l-0.74-0.2v-4.24h-2.41v4.26l-0.77,0.19
			c-0.78,0.19-1.53,0.49-2.17,0.87l-0.66,0.4l-2.76-2.72l-1.7,1.69l2.7,2.53l-0.41,0.69c-0.42,0.71-0.7,1.18-0.88,1.92l-0.19,0.76
			h-3.74v2.41h3.73l0.2,0.74c0.27,1.01,0.63,1.92,0.99,2.49l0.42,0.67L34.9,34.5l1.74,1.76l2.97-2.88l0.65,0.37
			c0.7,0.4,1.29,0.63,1.97,0.78l0.78,0.17V38.25z M44.06,32.01c-2.86,0-5.19-2.33-5.19-5.19c0-2.86,2.33-5.19,5.19-5.19
			c2.86,0,5.19,2.33,5.19,5.19C49.26,29.69,46.93,32.01,44.06,32.01z M44.06,23.64c-1.76,0-3.19,1.43-3.19,3.19
			c0,1.76,1.43,3.19,3.19,3.19s3.19-1.43,3.19-3.19C47.26,25.07,45.82,23.64,44.06,23.64z"/>
	</g>
</g>
</svg>
