<?xml version="1.0" encoding="utf-8"?>
<!-- Generator: Adobe Illustrator 24.1.0, SVG Export Plug-In . SVG Version: 6.00 Build 0)  -->
<svg version="1.1" id="Layer_1" xmlns="http://www.w3.org/2000/svg" xmlns:xlink="http://www.w3.org/1999/xlink" x="0px" y="0px"
	 viewBox="0 0 58 64.33" style="enable-background:new 0 0 58 64.33;" xml:space="preserve">
<style type="text/css">
	.st0{fill:#F6F3F8;}
</style>
<g>
	<g>
		<g>
			<path class="st0" d="M57,58.33c0,2.75-2.25,5-5,5H6c-2.75,0-5-2.25-5-5v-52c0-2.75,2.25-5,5-5h46c2.75,0,5,2.25,5,5V58.33z"/>
		</g>
		<path d="M52,64.33H6c-3.31,0-6-2.69-6-6v-52c0-3.31,2.69-6,6-6h46c3.31,0,6,2.69,6,6v52C58,61.64,55.31,64.33,52,64.33z M6,2.33
			c-2.21,0-4,1.79-4,4v52c0,2.21,1.79,4,4,4h46c2.21,0,4-1.79,4-4v-52c0-2.21-1.79-4-4-4H6z"/>
	</g>
	<path d="M42,12H16c-0.55,0-1-0.45-1-1V1c0-0.55,0.45-1,1-1h26c0.55,0,1,0.45,1,1v10C43,11.55,42.55,12,42,12z M17,10h24V2H17V10z"
		/>
	<g>
		<path d="M13,25.83c-0.26,0-0.5-0.1-0.69-0.28L8.48,21.9c-0.4-0.38-0.42-1.01-0.03-1.41s1.02-0.41,1.41-0.03l3.11,2.96l6.14-6.44
			c0.38-0.4,1.02-0.41,1.41-0.03c0.4,0.38,0.42,1.01,0.03,1.41l-6.83,7.17c-0.18,0.19-0.43,0.3-0.7,0.31
			C13.02,25.83,13.01,25.83,13,25.83z"/>
		<path d="M50,20H27c-0.55,0-1-0.45-1-1s0.45-1,1-1h23c0.55,0,1,0.45,1,1S50.55,20,50,20z"/>
		<path d="M36,24h-9c-0.55,0-1-0.45-1-1s0.45-1,1-1h9c0.55,0,1,0.45,1,1S36.55,24,36,24z"/>
	</g>
	<g>
		<path d="M13,41.83c-0.26,0-0.5-0.1-0.69-0.28L8.48,37.9c-0.4-0.38-0.42-1.01-0.03-1.41c0.38-0.4,1.02-0.41,1.41-0.03l3.11,2.96
			l6.14-6.44c0.38-0.4,1.02-0.41,1.41-0.03c0.4,0.38,0.42,1.01,0.03,1.41l-6.83,7.17c-0.18,0.19-0.43,0.3-0.7,0.31
			C13.02,41.83,13.01,41.83,13,41.83z"/>
		<path d="M50,36H27c-0.55,0-1-0.45-1-1s0.45-1,1-1h23c0.55,0,1,0.45,1,1S50.55,36,50,36z"/>
		<path d="M36,40h-9c-0.55,0-1-0.45-1-1s0.45-1,1-1h9c0.55,0,1,0.45,1,1S36.55,40,36,40z"/>
	</g>
	<g>
		<path d="M13,57.83c-0.26,0-0.5-0.1-0.69-0.28L8.48,53.9c-0.4-0.38-0.42-1.01-0.03-1.41s1.02-0.41,1.41-0.03l3.11,2.96l6.14-6.44
			c0.38-0.4,1.02-0.41,1.41-0.03c0.4,0.38,0.42,1.01,0.03,1.41l-6.83,7.17c-0.18,0.19-0.43,0.3-0.7,0.31
			C13.02,57.83,13.01,57.83,13,57.83z"/>
		<path d="M50,52H27c-0.55,0-1-0.45-1-1s0.45-1,1-1h23c0.55,0,1,0.45,1,1S50.55,52,50,52z"/>
		<path d="M36,56h-9c-0.55,0-1-0.45-1-1s0.45-1,1-1h9c0.55,0,1,0.45,1,1S36.55,56,36,56z"/>
	</g>
</g>
</svg>
