<svg xmlns="http://www.w3.org/2000/svg" xmlns:xlink="http://www.w3.org/1999/xlink" width="1080" zoomAndPan="magnify" viewBox="0 0 810 1012.49997" height="1350" preserveAspectRatio="xMidYMid meet" version="1.0"><defs><clipPath id="e1e317ee32"><path d="M 194.347656 61 L 615.636719 61 L 615.636719 951 L 194.347656 951 Z M 194.347656 61 " clip-rule="nonzero"/></clipPath></defs><g clip-path="url(#e1e317ee32)"><path fill="#2972ba" d="M 518.453125 208.058594 L 615.648438 208.058594 L 615.648438 61.515625 L 491.539062 61.515625 L 491.539062 62.078125 C 328.363281 68.058594 294.71875 159.460938 291.914062 256.09375 L 291.542969 256.09375 L 291.542969 357.773438 L 194.347656 357.773438 L 194.347656 504.5 L 291.542969 504.5 L 291.542969 950.476562 L 465.933594 950.476562 L 465.933594 504.5 L 590.976562 504.5 L 615.648438 357.773438 L 465.933594 357.773438 L 465.933594 266.746094 C 465.933594 234.410156 487.613281 208.058594 518.453125 208.058594 Z M 518.453125 208.058594 " fill-opacity="1" fill-rule="nonzero"/></g></svg>