<svg xmlns="http://www.w3.org/2000/svg" xmlns:xlink="http://www.w3.org/1999/xlink" width="1080" zoomAndPan="magnify" viewBox="0 0 810 1012.49997" height="1350" preserveAspectRatio="xMidYMid meet" version="1.0"><defs><clipPath id="cb045e3c17"><path d="M 18.351562 119 L 791.96875 119 L 791.96875 893 L 18.351562 893 Z M 18.351562 119 " clip-rule="nonzero"/></clipPath></defs><g clip-path="url(#cb045e3c17)"><path fill="#000000" d="M 791.960938 505.824219 C 791.960938 512.15625 791.808594 518.480469 791.496094 524.804688 C 791.1875 531.125 790.722656 537.4375 790.101562 543.734375 C 789.480469 550.035156 788.703125 556.316406 787.773438 562.574219 C 786.84375 568.835938 785.765625 575.070312 784.527344 581.28125 C 783.292969 587.488281 781.90625 593.664062 780.367188 599.800781 C 778.832031 605.941406 777.144531 612.042969 775.304688 618.097656 C 773.46875 624.15625 771.484375 630.164062 769.347656 636.121094 C 767.21875 642.082031 764.941406 647.988281 762.515625 653.835938 C 760.09375 659.679688 757.53125 665.464844 754.824219 671.191406 C 752.117188 676.910156 749.273438 682.566406 746.289062 688.148438 C 743.304688 693.726562 740.183594 699.234375 736.929688 704.664062 C 733.675781 710.09375 730.289062 715.441406 726.773438 720.703125 C 723.257812 725.96875 719.613281 731.140625 715.84375 736.226562 C 712.070312 741.308594 708.179688 746.296875 704.164062 751.191406 C 700.144531 756.085938 696.011719 760.878906 691.761719 765.566406 C 687.507812 770.253906 683.144531 774.839844 678.671875 779.3125 C 674.195312 783.789062 669.609375 788.152344 664.921875 792.40625 C 660.230469 796.65625 655.4375 800.789062 650.542969 804.808594 C 645.652344 808.820312 640.664062 812.714844 635.578125 816.480469 C 630.492188 820.253906 625.316406 823.898438 620.054688 827.414062 C 614.792969 830.929688 609.445312 834.316406 604.015625 837.570312 C 598.585938 840.820312 593.078125 843.941406 587.496094 846.929688 C 581.914062 849.910156 576.261719 852.753906 570.539062 855.464844 C 564.816406 858.167969 559.03125 860.730469 553.179688 863.15625 C 547.332031 865.582031 541.429688 867.859375 535.46875 869.992188 C 529.507812 872.121094 523.5 874.109375 517.441406 875.945312 C 511.386719 877.78125 505.285156 879.46875 499.144531 881.007812 C 493.003906 882.542969 486.828125 883.925781 480.621094 885.164062 C 474.410156 886.398438 468.175781 887.480469 461.914062 888.410156 C 455.65625 889.339844 449.375 890.113281 443.074219 890.734375 C 436.777344 891.355469 430.464844 891.824219 424.140625 892.132812 C 417.820312 892.445312 411.492188 892.597656 405.160156 892.597656 C 398.828125 892.597656 392.503906 892.445312 386.179688 892.132812 C 379.859375 891.824219 373.546875 891.359375 367.246094 890.738281 C 360.945312 890.117188 354.664062 889.34375 348.40625 888.414062 C 342.140625 887.484375 335.90625 886.402344 329.699219 885.164062 C 323.488281 883.929688 317.3125 882.546875 311.175781 881.007812 C 305.035156 879.46875 298.933594 877.78125 292.878906 875.945312 C 286.820312 874.109375 280.8125 872.121094 274.851562 869.992188 C 268.890625 867.859375 262.984375 865.582031 257.136719 863.15625 C 251.289062 860.730469 245.503906 858.167969 239.78125 855.464844 C 234.058594 852.753906 228.40625 849.910156 222.824219 846.929688 C 217.238281 843.941406 211.734375 840.824219 206.304688 837.570312 C 200.875 834.316406 195.527344 830.929688 190.265625 827.414062 C 185 823.898438 179.824219 820.253906 174.742188 816.480469 C 169.65625 812.714844 164.667969 808.820312 159.773438 804.808594 C 154.882812 800.789062 150.089844 796.65625 145.398438 792.40625 C 140.707031 788.152344 136.125 783.789062 131.648438 779.3125 C 127.171875 774.839844 122.808594 770.253906 118.554688 765.566406 C 114.304688 760.878906 110.171875 756.085938 106.15625 751.191406 C 102.140625 746.296875 98.25 741.308594 94.476562 736.226562 C 90.703125 731.140625 87.0625 725.96875 83.546875 720.703125 C 80.027344 715.441406 76.640625 710.09375 73.386719 704.667969 C 70.132812 699.234375 67.015625 693.726562 64.03125 688.148438 C 61.046875 682.566406 58.199219 676.910156 55.496094 671.1875 C 52.789062 665.464844 50.222656 659.679688 47.800781 653.835938 C 45.378906 647.988281 43.101562 642.082031 40.96875 636.121094 C 38.835938 630.164062 36.851562 624.15625 35.011719 618.097656 C 33.175781 612.042969 31.488281 605.941406 29.949219 599.800781 C 28.410156 593.664062 27.027344 587.488281 25.789062 581.285156 C 24.554688 575.074219 23.472656 568.839844 22.542969 562.578125 C 21.613281 556.316406 20.839844 550.035156 20.21875 543.734375 C 19.601562 537.4375 19.132812 531.125 18.824219 524.804688 C 18.511719 518.480469 18.359375 512.15625 18.359375 505.824219 C 18.359375 499.496094 18.511719 493.171875 18.824219 486.847656 C 19.132812 480.527344 19.601562 474.214844 20.21875 467.914062 C 20.839844 461.617188 21.613281 455.335938 22.542969 449.074219 C 23.472656 442.8125 24.554688 436.578125 25.789062 430.371094 C 27.027344 424.160156 28.410156 417.984375 29.949219 411.847656 C 31.488281 405.707031 33.175781 399.609375 35.011719 393.550781 C 36.851562 387.492188 38.835938 381.484375 40.96875 375.523438 C 43.101562 369.566406 45.378906 363.660156 47.800781 357.8125 C 50.222656 351.960938 52.789062 346.175781 55.496094 340.457031 C 58.199219 334.738281 61.046875 329.082031 64.03125 323.503906 C 67.015625 317.917969 70.132812 312.410156 73.386719 306.984375 C 76.640625 301.554688 80.027344 296.210938 83.546875 290.945312 C 87.0625 285.683594 90.703125 280.507812 94.476562 275.425781 C 98.25 270.339844 102.140625 265.351562 106.15625 260.457031 C 110.171875 255.566406 114.304688 250.773438 118.554688 246.085938 C 122.808594 241.394531 127.171875 236.8125 131.648438 232.335938 C 136.125 227.859375 140.707031 223.496094 145.398438 219.246094 C 150.089844 214.996094 154.878906 210.863281 159.773438 206.847656 C 164.667969 202.832031 169.65625 198.9375 174.742188 195.164062 C 179.824219 191.394531 185 187.753906 190.265625 184.234375 C 195.527344 180.71875 200.871094 177.332031 206.300781 174.078125 C 211.730469 170.824219 217.238281 167.703125 222.824219 164.722656 C 228.40625 161.738281 234.058594 158.894531 239.78125 156.1875 C 245.503906 153.480469 251.289062 150.917969 257.136719 148.496094 C 262.984375 146.074219 268.890625 143.792969 274.847656 141.664062 C 280.8125 139.53125 286.820312 137.546875 292.878906 135.707031 C 298.933594 133.875 305.03125 132.183594 311.171875 130.644531 C 317.3125 129.109375 323.488281 127.722656 329.699219 126.488281 C 335.90625 125.25 342.140625 124.167969 348.402344 123.242188 C 354.664062 122.3125 360.945312 121.539062 367.246094 120.917969 C 373.546875 120.296875 379.859375 119.832031 386.179688 119.523438 C 392.503906 119.210938 398.828125 119.054688 405.160156 119.054688 C 411.492188 119.054688 417.820312 119.210938 424.140625 119.523438 C 430.464844 119.832031 436.777344 120.296875 443.074219 120.917969 C 449.375 121.539062 455.65625 122.3125 461.914062 123.242188 C 468.175781 124.167969 474.410156 125.25 480.621094 126.484375 C 486.828125 127.71875 493.003906 129.105469 499.144531 130.644531 C 505.285156 132.183594 511.382812 133.871094 517.441406 135.707031 C 523.5 137.546875 529.507812 139.53125 535.46875 141.664062 C 541.429688 143.792969 547.332031 146.074219 553.179688 148.496094 C 559.03125 150.917969 564.816406 153.480469 570.539062 156.1875 C 576.261719 158.894531 581.914062 161.738281 587.496094 164.722656 C 593.078125 167.703125 598.585938 170.824219 604.015625 174.078125 C 609.445312 177.332031 614.792969 180.71875 620.054688 184.234375 C 625.316406 187.75 630.492188 191.394531 635.574219 195.164062 C 640.660156 198.933594 645.652344 202.828125 650.542969 206.847656 C 655.4375 210.859375 660.226562 214.992188 664.917969 219.246094 C 669.609375 223.492188 674.191406 227.855469 678.667969 232.335938 C 683.144531 236.8125 687.507812 241.394531 691.757812 246.085938 C 696.011719 250.773438 700.144531 255.5625 704.160156 260.457031 C 708.175781 265.351562 712.070312 270.339844 715.839844 275.425781 C 719.613281 280.507812 723.253906 285.683594 726.773438 290.945312 C 730.289062 296.207031 733.675781 301.554688 736.929688 306.980469 C 740.183594 312.410156 743.304688 317.917969 746.289062 323.5 C 749.269531 329.082031 752.117188 334.734375 754.824219 340.457031 C 757.53125 346.175781 760.09375 351.960938 762.515625 357.8125 C 764.9375 363.660156 767.21875 369.566406 769.347656 375.523438 C 771.484375 381.484375 773.46875 387.492188 775.304688 393.550781 C 777.144531 399.605469 778.832031 405.707031 780.367188 411.84375 C 781.90625 417.984375 783.292969 424.160156 784.527344 430.367188 C 785.765625 436.578125 786.84375 442.808594 787.773438 449.070312 C 788.703125 455.332031 789.480469 461.613281 790.101562 467.914062 C 790.722656 474.214844 791.1875 480.523438 791.496094 486.847656 C 791.808594 493.171875 791.960938 499.496094 791.960938 505.824219 Z M 791.960938 505.824219 " fill-opacity="1" fill-rule="nonzero"/></g><path stroke-linecap="round" transform="matrix(2.306553, 0, 0, 2.305227, -70447.77154, -21403.144139)" fill-opacity="1" fill="#ffffff" fill-rule="evenodd" stroke-linejoin="round" d="M 30640.399843 9422.349955 L 30685.698765 9422.029691 L 30795.699547 9582.119332 L 30749.999254 9581.719426 Z M 30640.399843 9422.349955 " stroke="#ffffff" stroke-width="2.14" stroke-opacity="1" stroke-miterlimit="1.5"/><path stroke-linecap="round" transform="matrix(2.306553, 0, 0, 2.305227, -70447.77154, -21403.144139)" fill-opacity="1" fill="#ffffff" fill-rule="evenodd" stroke-linejoin="round" d="M 30776.801286 9422.029691 L 30790.900042 9422.029691 L 30654.000697 9582.119332 L 30640.399843 9582.119332 Z M 30776.801286 9422.029691 " stroke="#ffffff" stroke-width="2.14" stroke-opacity="1" stroke-miterlimit="1.5"/><path fill="#000000" d="M 269.074219 345.429688 L 317.511719 345.707031 L 541.476562 666.226562 L 493.039062 666.15625 Z M 269.074219 345.429688 " fill-opacity="1" fill-rule="evenodd"/><path fill="#000000" d="M 269.074219 345.429688 L 317.511719 345.707031 L 541.476562 666.226562 L 493.039062 666.15625 Z M 272.765625 347.390625 C 272.765625 347.390625 493.964844 664.21875 493.964844 664.21875 C 493.964844 664.21875 537.789062 664.289062 537.789062 664.289062 L 316.359375 347.644531 Z M 272.765625 347.390625 " fill-opacity="1" fill-rule="evenodd"/></svg>