<svg xmlns="http://www.w3.org/2000/svg" xmlns:xlink="http://www.w3.org/1999/xlink" width="1080" zoomAndPan="magnify" viewBox="0 0 810 1012.49997" height="1350" preserveAspectRatio="xMidYMid meet" version="1.0"><defs><clipPath id="96cda5bdbe"><path d="M 54.292969 169.519531 L 755.945312 169.519531 L 755.945312 871 L 54.292969 871 Z M 54.292969 169.519531 " clip-rule="nonzero"/></clipPath></defs><g clip-path="url(#96cda5bdbe)"><path fill="#000000" d="M 755.699219 764.277344 C 755.699219 823.136719 707.980469 870.855469 649.113281 870.855469 L 160.894531 870.855469 C 102.03125 870.855469 54.320312 823.136719 54.320312 764.277344 L 54.320312 276.054688 C 54.320312 217.191406 102.035156 169.472656 160.894531 169.472656 L 649.117188 169.472656 C 707.984375 169.472656 755.703125 217.191406 755.703125 276.054688 L 755.703125 764.277344 Z M 755.699219 764.277344 " fill-opacity="1" fill-rule="nonzero"/></g><path fill="#ffffff" d="M 331.660156 419.707031 C 331.660156 421.425781 331.574219 423.136719 331.40625 424.84375 C 331.238281 426.550781 330.988281 428.246094 330.652344 429.929688 C 330.316406 431.613281 329.902344 433.277344 329.402344 434.917969 C 328.90625 436.558594 328.328125 438.175781 327.671875 439.757812 C 327.011719 441.34375 326.28125 442.894531 325.472656 444.40625 C 324.664062 445.921875 323.78125 447.390625 322.828125 448.816406 C 321.875 450.246094 320.855469 451.621094 319.765625 452.949219 C 318.675781 454.273438 317.527344 455.542969 316.3125 456.757812 C 315.097656 457.972656 313.828125 459.121094 312.503906 460.210938 C 311.175781 461.300781 309.800781 462.320312 308.371094 463.273438 C 306.945312 464.226562 305.476562 465.109375 303.960938 465.917969 C 302.449219 466.726562 300.898438 467.457031 299.3125 468.117188 C 297.730469 468.773438 296.113281 469.351562 294.472656 469.847656 C 292.832031 470.347656 291.167969 470.761719 289.484375 471.097656 C 287.800781 471.433594 286.105469 471.683594 284.398438 471.851562 C 282.691406 472.019531 280.980469 472.105469 279.261719 472.105469 C 277.546875 472.105469 275.835938 472.019531 274.128906 471.851562 C 272.417969 471.683594 270.722656 471.433594 269.042969 471.097656 C 267.359375 470.761719 265.695312 470.347656 264.054688 469.847656 C 262.410156 469.351562 260.796875 468.773438 259.210938 468.117188 C 257.628906 467.457031 256.078125 466.726562 254.5625 465.917969 C 253.050781 465.109375 251.582031 464.226562 250.152344 463.273438 C 248.726562 462.320312 247.351562 461.300781 246.023438 460.210938 C 244.699219 459.121094 243.425781 457.972656 242.214844 456.757812 C 241 455.542969 239.851562 454.273438 238.761719 452.949219 C 237.671875 451.621094 236.652344 450.246094 235.699219 448.816406 C 234.746094 447.390625 233.863281 445.921875 233.054688 444.40625 C 232.246094 442.894531 231.511719 441.34375 230.855469 439.757812 C 230.199219 438.175781 229.621094 436.558594 229.125 434.917969 C 228.625 433.277344 228.210938 431.613281 227.875 429.929688 C 227.539062 428.246094 227.289062 426.550781 227.121094 424.84375 C 226.953125 423.136719 226.867188 421.425781 226.867188 419.707031 C 226.867188 417.992188 226.953125 416.28125 227.121094 414.574219 C 227.289062 412.867188 227.539062 411.167969 227.875 409.488281 C 228.210938 407.804688 228.625 406.140625 229.125 404.5 C 229.621094 402.855469 230.199219 401.242188 230.855469 399.65625 C 231.511719 398.074219 232.246094 396.523438 233.054688 395.007812 C 233.863281 393.496094 234.746094 392.027344 235.699219 390.597656 C 236.652344 389.171875 237.671875 387.796875 238.761719 386.46875 C 239.851562 385.144531 241 383.871094 242.214844 382.660156 C 243.425781 381.445312 244.699219 380.296875 246.023438 379.207031 C 247.351562 378.117188 248.726562 377.097656 250.152344 376.144531 C 251.582031 375.191406 253.050781 374.308594 254.5625 373.5 C 256.078125 372.691406 257.628906 371.957031 259.210938 371.300781 C 260.796875 370.644531 262.410156 370.066406 264.054688 369.570312 C 265.695312 369.070312 267.359375 368.65625 269.042969 368.320312 C 270.722656 367.984375 272.417969 367.734375 274.128906 367.566406 C 275.835938 367.398438 277.546875 367.3125 279.261719 367.3125 C 280.980469 367.3125 282.691406 367.398438 284.398438 367.566406 C 286.105469 367.734375 287.800781 367.984375 289.484375 368.320312 C 291.167969 368.65625 292.832031 369.070312 294.472656 369.570312 C 296.113281 370.066406 297.730469 370.644531 299.3125 371.300781 C 300.898438 371.957031 302.449219 372.691406 303.960938 373.5 C 305.476562 374.308594 306.945312 375.191406 308.371094 376.144531 C 309.800781 377.097656 311.175781 378.117188 312.503906 379.207031 C 313.828125 380.296875 315.097656 381.445312 316.3125 382.660156 C 317.527344 383.871094 318.675781 385.144531 319.765625 386.46875 C 320.855469 387.796875 321.875 389.171875 322.828125 390.597656 C 323.78125 392.027344 324.664062 393.496094 325.472656 395.007812 C 326.28125 396.523438 327.011719 398.074219 327.671875 399.65625 C 328.328125 401.242188 328.90625 402.855469 329.402344 404.5 C 329.902344 406.140625 330.316406 407.804688 330.652344 409.488281 C 330.988281 411.167969 331.238281 412.863281 331.40625 414.574219 C 331.574219 416.28125 331.660156 417.992188 331.660156 419.707031 Z M 331.660156 419.707031 " fill-opacity="1" fill-rule="nonzero"/><path fill="#ffffff" d="M 234.09375 510.730469 L 324.109375 510.730469 L 324.109375 800.304688 L 234.09375 800.304688 Z M 234.09375 510.730469 " fill-opacity="1" fill-rule="nonzero"/><path fill="#ffffff" d="M 380.722656 510.730469 L 466.398438 510.730469 L 466.398438 800.304688 L 380.722656 800.304688 Z M 380.722656 510.730469 " fill-opacity="1" fill-rule="nonzero"/><path fill="#ffffff" d="M 384.425781 664.910156 L 470.097656 664.910156 L 470.097656 800.304688 L 384.425781 800.304688 Z M 384.425781 664.910156 " fill-opacity="1" fill-rule="nonzero"/><path fill="#ffffff" d="M 470.097656 664.910156 C 470.097656 664.910156 468.757812 627.351562 478.664062 607.820312 C 478.664062 607.820312 488.570312 583.773438 519.707031 583.628906 C 519.707031 583.628906 556.222656 577.253906 566.691406 613.484375 C 566.691406 613.484375 570.65625 633.578125 570.65625 642.074219 C 570.65625 650.570312 570.941406 800.304688 570.941406 800.304688 L 660.667969 800.304688 L 660.667969 634.433594 C 660.667969 634.433594 667.179688 540.738281 610.945312 515.070312 C 610.945312 515.070312 518.476562 473.558594 468.285156 549.796875 C 468.285156 549.796875 457.339844 557.339844 455.828125 536.207031 C 454.316406 515.070312 441.488281 568.664062 441.109375 569.800781 C 440.730469 570.929688 455.828125 676.609375 455.828125 676.609375 Z M 470.097656 664.910156 " fill-opacity="1" fill-rule="nonzero"/></svg>